<svg width="47" height="48" viewBox="0 0 47 48" fill="none" xmlns="http://www.w3.org/2000/svg">
<g clip-path="url(#clip0_494_186)">
<path d="M16.7449 4.73871C16.9937 4.47422 17.1333 4.11738 17.1333 3.74556C17.1333 3.37375 16.9937 3.01691 16.7449 2.75241L15.7927 1.7526C15.544 1.51087 15.2176 1.3766 14.8786 1.3766C14.5397 1.3766 14.2133 1.51087 13.9646 1.7526L8.88647 7.01829L3.87182 1.7526C3.61994 1.49127 3.28011 1.34473 2.92602 1.34473C2.57193 1.34473 2.23211 1.49127 1.98022 1.7526L1.02807 2.75241C0.779209 3.01691 0.639648 3.37375 0.639648 3.74556C0.639648 4.11738 0.779209 4.47422 1.02807 4.73871L6.10619 10.0711L1.02807 15.3368C0.779209 15.6012 0.639648 15.9581 0.639648 16.3299C0.639648 16.7017 0.779209 17.0586 1.02807 17.323L1.98022 18.3229C2.23211 18.5842 2.57193 18.7307 2.92602 18.7307C3.28011 18.7307 3.61994 18.5842 3.87182 18.3229L8.88647 12.9905L13.9646 18.2562C14.2165 18.5175 14.5563 18.6641 14.9104 18.6641C15.2645 18.6641 15.6043 18.5175 15.8562 18.2562L16.8083 17.2564C17.0572 16.9919 17.1968 16.6351 17.1968 16.2632C17.1968 15.8914 17.0572 15.5346 16.8083 15.2701L11.7302 10.0044L16.7449 4.73871Z" fill="#FAFAFA"/>
</g>
<path d="M19.161 35.08C19.8238 35.08 20.4595 34.8035 20.9282 34.3113C21.3969 33.8192 21.6602 33.1516 21.6602 32.4556C21.6602 31.7596 21.3969 31.0921 20.9282 30.5999C20.4595 30.1078 19.8238 29.8313 19.161 29.8313C18.4981 29.8313 17.8624 30.1078 17.3937 30.5999C16.925 31.0921 16.6617 31.7596 16.6617 32.4556C16.6617 33.1516 16.925 33.8192 17.3937 34.3113C17.8624 34.8035 18.4981 35.08 19.161 35.08ZM39.988 32.4556C39.988 33.1516 39.7247 33.8192 39.256 34.3113C38.7873 34.8035 38.1516 35.08 37.4888 35.08C36.826 35.08 36.1903 34.8035 35.7216 34.3113C35.2529 33.8192 34.9895 33.1516 34.9895 32.4556C34.9895 31.7596 35.2529 31.0921 35.7216 30.5999C36.1903 30.1078 36.826 29.8313 37.4888 29.8313C38.1516 29.8313 38.7873 30.1078 39.256 30.5999C39.7247 31.0921 39.988 31.7596 39.988 32.4556ZM43.3204 22.833C45.3431 24.4286 46.6527 26.969 46.6527 29.8313V43.8279C46.6527 44.7559 46.3016 45.6459 45.6767 46.3022C45.0518 46.9584 44.2042 47.327 43.3204 47.327C42.4366 47.327 41.589 46.9584 40.9641 46.3022C40.3391 45.6459 39.988 44.7559 39.988 43.8279V42.0783H16.6617V43.8279C16.6617 44.7559 16.3106 45.6459 15.6857 46.3022C15.0608 46.9584 14.2132 47.327 13.3294 47.327C12.4456 47.327 11.598 46.9584 10.9731 46.3022C10.3482 45.6459 9.99707 44.7559 9.99707 43.8279V29.8313C9.99707 26.969 11.3067 24.4286 13.3294 22.833H11.6632C11.2213 22.833 10.7975 22.6486 10.4851 22.3205C10.1726 21.9924 9.99707 21.5474 9.99707 21.0834C9.99707 20.6194 10.1726 20.1744 10.4851 19.8463C10.7975 19.5182 11.2213 19.3338 11.6632 19.3338H13.8626L14.3224 16.433C14.5819 14.7996 15.3845 13.3156 16.5877 12.245C17.7909 11.1744 19.3167 10.5866 20.8938 10.5859H35.7493C37.327 10.5857 38.8535 11.1732 40.0574 12.2439C41.2613 13.3145 42.0645 14.799 42.324 16.433L42.7839 19.3338H44.9832C45.4251 19.3338 45.8489 19.5182 46.1614 19.8463C46.4738 20.1744 46.6494 20.6194 46.6494 21.0834C46.6494 21.5474 46.4738 21.9924 46.1614 22.3205C45.8489 22.6486 45.4251 22.833 44.9832 22.833H43.3204ZM20.8938 14.0851C20.105 14.0855 19.3419 14.3797 18.7403 14.9153C18.1387 15.4509 17.7375 16.1933 17.6081 17.0104L16.9416 21.2024C17.3948 21.1254 17.8547 21.0834 18.3279 21.0834H38.3219C38.7951 21.0834 39.2549 21.1254 39.7048 21.2024L39.0383 17.0104C38.9091 16.1939 38.5084 15.452 37.9074 14.9164C37.3065 14.3809 36.5442 14.0863 35.756 14.0851H20.8971H20.8938ZM13.3294 29.8313V38.5791H43.3204V29.8313C43.3204 28.4392 42.7937 27.1042 41.8563 26.1199C40.9189 25.1355 39.6476 24.5825 38.3219 24.5825H18.3279C17.0022 24.5825 15.7308 25.1355 14.7934 26.1199C13.856 27.1042 13.3294 28.4392 13.3294 29.8313Z" fill="#FBFBFB"/>
<path d="M19.161 35.08C19.8238 35.08 20.4595 34.8035 20.9282 34.3113C21.3969 33.8192 21.6602 33.1516 21.6602 32.4556C21.6602 31.7596 21.3969 31.0921 20.9282 30.5999C20.4595 30.1078 19.8238 29.8313 19.161 29.8313C18.4981 29.8313 17.8624 30.1078 17.3937 30.5999C16.925 31.0921 16.6617 31.7596 16.6617 32.4556C16.6617 33.1516 16.925 33.8192 17.3937 34.3113C17.8624 34.8035 18.4981 35.08 19.161 35.08ZM39.988 32.4556C39.988 33.1516 39.7247 33.8192 39.256 34.3113C38.7873 34.8035 38.1516 35.08 37.4888 35.08C36.826 35.08 36.1903 34.8035 35.7216 34.3113C35.2529 33.8192 34.9895 33.1516 34.9895 32.4556C34.9895 31.7596 35.2529 31.0921 35.7216 30.5999C36.1903 30.1078 36.826 29.8313 37.4888 29.8313C38.1516 29.8313 38.7873 30.1078 39.256 30.5999C39.7247 31.0921 39.988 31.7596 39.988 32.4556ZM43.3204 22.833C45.3431 24.4286 46.6527 26.969 46.6527 29.8313V43.8279C46.6527 44.7559 46.3016 45.6459 45.6767 46.3022C45.0518 46.9584 44.2042 47.327 43.3204 47.327C42.4366 47.327 41.589 46.9584 40.9641 46.3022C40.3391 45.6459 39.988 44.7559 39.988 43.8279V42.0783H16.6617V43.8279C16.6617 44.7559 16.3106 45.6459 15.6857 46.3022C15.0608 46.9584 14.2132 47.327 13.3294 47.327C12.4456 47.327 11.598 46.9584 10.9731 46.3022C10.3482 45.6459 9.99707 44.7559 9.99707 43.8279V29.8313C9.99707 26.969 11.3067 24.4286 13.3294 22.833H11.6632C11.2213 22.833 10.7975 22.6486 10.4851 22.3205C10.1726 21.9924 9.99707 21.5474 9.99707 21.0834C9.99707 20.6194 10.1726 20.1744 10.4851 19.8463C10.7975 19.5182 11.2213 19.3338 11.6632 19.3338H13.8626L14.3224 16.433C14.5819 14.7996 15.3845 13.3156 16.5877 12.245C17.7909 11.1744 19.3167 10.5866 20.8938 10.5859H35.7493C37.327 10.5857 38.8535 11.1732 40.0574 12.2439C41.2613 13.3145 42.0645 14.799 42.324 16.433L42.7839 19.3338H44.9832C45.4251 19.3338 45.8489 19.5182 46.1614 19.8463C46.4738 20.1744 46.6494 20.6194 46.6494 21.0834C46.6494 21.5474 46.4738 21.9924 46.1614 22.3205C45.8489 22.6486 45.4251 22.833 44.9832 22.833H43.3204ZM20.8938 14.0851C20.105 14.0855 19.3419 14.3797 18.7403 14.9153C18.1387 15.4509 17.7375 16.1933 17.6081 17.0104L16.9416 21.2024C17.3948 21.1254 17.8547 21.0834 18.3279 21.0834H38.3219C38.7951 21.0834 39.2549 21.1254 39.7048 21.2024L39.0383 17.0104C38.9091 16.1939 38.5084 15.452 37.9074 14.9164C37.3065 14.3809 36.5442 14.0863 35.756 14.0851H20.8971H20.8938ZM13.3294 29.8313V38.5791H43.3204V29.8313C43.3204 28.4392 42.7937 27.1042 41.8563 26.1199C40.9189 25.1355 39.6476 24.5825 38.3219 24.5825H18.3279C17.0022 24.5825 15.7308 25.1355 14.7934 26.1199C13.856 27.1042 13.3294 28.4392 13.3294 29.8313Z" stroke="white"/>
<defs>
<clipPath id="clip0_494_186">
<rect width="17.7734" height="18.6632" fill="white" transform="translate(0 0.673828)"/>
</clipPath>
</defs>
</svg>
