<svg width="17.809570" height="19.237305" viewBox="0 0 17.8096 19.2373" fill="none" xmlns="http://www.w3.org/2000/svg" xmlns:xlink="http://www.w3.org/1999/xlink">
	<desc>
			Created with Pixso.
	</desc>
	<defs/>
	<path id="Vector" d="M0.33 4.61L17.47 4.61" stroke="#49498A" stroke-opacity="0.660000" stroke-width="0.666666" stroke-linejoin="round" stroke-linecap="round"/>
	<path id="Vector" d="M15.33 4.61L15.33 17.47C15.33 17.85 15.18 18.21 14.91 18.48C14.64 18.75 14.28 18.9 13.9 18.9L3.9 18.9C3.52 18.9 3.16 18.75 2.89 18.48C2.62 18.21 2.47 17.85 2.47 17.47L2.47 4.61L15.33 4.61Z" stroke="#49498A" stroke-opacity="0.660000" stroke-width="0.666666" stroke-linejoin="round"/>
	<path id="Vector" d="M5.33 4.61L5.33 3.9C5.33 2.95 5.7 2.04 6.37 1.37C7.04 0.7 7.95 0.33 8.9 0.33C9.85 0.33 10.75 0.7 11.42 1.37C12.09 2.04 12.47 2.95 12.47 3.9L12.47 4.61" stroke="#49498A" stroke-opacity="0.660000" stroke-width="0.666666" stroke-linejoin="round" stroke-linecap="round"/>
	<path id="Vector" d="M6.76 7.47L6.76 15.33" stroke="#49498A" stroke-opacity="0.660000" stroke-width="0.666666" stroke-linejoin="round" stroke-linecap="round"/>
	<path id="Vector" d="M11.04 7.47L11.04 15.33" stroke="#49498A" stroke-opacity="0.660000" stroke-width="0.666666" stroke-linejoin="round" stroke-linecap="round"/>
</svg>
