<svg width="20.000000" height="20.000000" viewBox="0 0 20 20" fill="none" xmlns="http://www.w3.org/2000/svg" xmlns:xlink="http://www.w3.org/1999/xlink">
	<desc>
			Created with Pixso.
	</desc>
	<defs>
		<clipPath id="clip494_124">
			<rect id="mail-send-envelope--envelope-email-message-unopened-sealed-close--Streamline-Core" rx="0.000000" width="19.333527" height="19.333527" transform="translate(0.333237 0.333237)" fill="white" fill-opacity="0"/>
		</clipPath>
	</defs>
	<rect id="mail-send-envelope--envelope-email-message-unopened-sealed-close--Streamline-Core" rx="0.000000" width="19.333527" height="19.333527" transform="translate(0.333237 0.333237)" fill="#FFFFFF" fill-opacity="0"/>
	<g clip-path="url(#clip494_124)">
		<path id="Vector" d="M17.61 3C18.37 3 19 3.63 19 4.42L19 16.57C19 17.36 18.37 18 17.61 18L2.38 18C1.62 18 1 17.36 1 16.57L1 4.42C1 3.63 1.62 3 2.38 3L17.61 3Z" stroke="#0000AC" stroke-opacity="1.000000" stroke-width="1.332948" stroke-linejoin="round"/>
		<path id="Vector" d="M0.71 4.28L9.08 11.42C9.34 11.64 9.66 11.75 10 11.75C10.33 11.75 10.65 11.64 10.91 11.42L19.28 4.28" stroke="#0000AC" stroke-opacity="1.000000" stroke-width="1.332948" stroke-linejoin="round" stroke-linecap="round"/>
	</g>
</svg>
