<svg width="47" height="48" viewBox="0 0 47 48" fill="none" xmlns="http://www.w3.org/2000/svg">
<path d="M23.328 27.6472C27.929 27.6472 31.6589 23.9173 31.6589 19.3163C31.6589 14.7152 27.929 10.9854 23.328 10.9854C18.727 10.9854 14.9971 14.7152 14.9971 19.3163C14.9971 23.9173 18.727 27.6472 23.328 27.6472Z" stroke="#1D1DE3" stroke-width="1.99942" stroke-linecap="round" stroke-linejoin="round"/>
<path d="M7 45.9741C7.76483 42.2076 9.80829 38.8213 12.7841 36.389C15.76 33.9567 19.4852 32.6279 23.3286 32.6279C27.172 32.6279 30.8972 33.9567 33.8731 36.389C36.8489 38.8213 38.8924 42.2076 39.6572 45.9741" stroke="#1D1DE3" stroke-width="1.99942" stroke-linecap="round" stroke-linejoin="round"/>
<path d="M41.6564 2.6543H5.00034C3.15992 2.6543 1.66797 4.14625 1.66797 5.98667V42.6427C1.66797 44.4832 3.15992 45.9751 5.00034 45.9751H41.6564C43.4968 45.9751 44.9888 44.4832 44.9888 42.6427V5.98667C44.9888 4.14625 43.4968 2.6543 41.6564 2.6543Z" stroke="#1D1DE3" stroke-width="1.99942" stroke-linecap="round" stroke-linejoin="round"/>
</svg>
