<svg width="35" height="35" viewBox="0 0 35 35" fill="none" xmlns="http://www.w3.org/2000/svg">
<g clip-path="url(#clip0_494_316)">
<path d="M1.86035 31.1121V4.39781C1.86035 3.75371 2.11622 3.136 2.57166 2.68055C3.02711 2.2251 3.64483 1.96924 4.28892 1.96924H31.0032C31.6473 1.96924 32.265 2.2251 32.7205 2.68055C33.1759 3.136 33.4318 3.75371 33.4318 4.39781V31.1121C33.4318 31.7562 33.1759 32.3739 32.7205 32.8294C32.265 33.2848 31.6473 33.5407 31.0032 33.5407H23.7175V22.0292H25.4418C25.8347 22.0292 26.2115 21.8732 26.4893 21.5953C26.7671 21.3175 26.9232 20.9407 26.9232 20.5478V18.6778C26.9232 18.4833 26.8849 18.2906 26.8104 18.1109C26.736 17.9312 26.6269 17.7678 26.4893 17.6303C26.3517 17.4927 26.1884 17.3836 26.0087 17.3091C25.829 17.2347 25.6363 17.1964 25.4418 17.1964H23.8146V14.9135C23.8146 12.8735 24.7375 12.8735 25.6604 12.8735H26.8503C27.0458 12.8816 27.2406 12.8466 27.4211 12.7711C27.6015 12.6955 27.7632 12.5813 27.8946 12.4364C28.0358 12.302 28.1475 12.1398 28.2227 11.9601C28.298 11.7803 28.3351 11.5869 28.3318 11.3921V9.59495C28.3383 9.39719 28.3057 9.2001 28.236 9.01493C28.1662 8.82976 28.0607 8.66015 27.9253 8.5158C27.79 8.37145 27.6276 8.25519 27.4473 8.17366C27.267 8.09214 27.0724 8.04694 26.8746 8.04067H24.0818C23.2669 8.01003 22.455 8.15666 21.7023 8.47042C20.9496 8.78418 20.274 9.2576 19.7221 9.85797C19.1702 10.4583 18.7552 11.1714 18.5058 11.9478C18.2564 12.7242 18.1785 13.5455 18.2775 14.355V17.1964H16.7232C16.5266 17.1932 16.3314 17.2291 16.1488 17.3021C15.9663 17.3751 15.8001 17.4837 15.6599 17.6216C15.5198 17.7595 15.4085 17.9239 15.3325 18.1052C15.2566 18.2866 15.2175 18.4812 15.2175 18.6778V20.5478C15.2175 20.7444 15.2566 20.9391 15.3325 21.1204C15.4085 21.3017 15.5198 21.4661 15.6599 21.604C15.8001 21.7419 15.9663 21.8505 16.1488 21.9235C16.3314 21.9965 16.5266 22.0325 16.7232 22.0292H18.2775V33.5407H4.28892C3.64483 33.5407 3.02711 33.2848 2.57166 32.8294C2.11622 32.3739 1.86035 31.7562 1.86035 31.1121Z" stroke="white" stroke-width="1.99942" stroke-linecap="round" stroke-linejoin="round"/>
</g>
<defs>
<clipPath id="clip0_494_316">
<rect width="34" height="34" fill="white" transform="translate(0.646484 0.754883)"/>
</clipPath>
</defs>
</svg>
