<svg width="20.000000" height="20.000000" viewBox="0 0 20 20" fill="none" xmlns="http://www.w3.org/2000/svg" xmlns:xlink="http://www.w3.org/1999/xlink">
	<desc>
			Created with Pixso.
	</desc>
	<defs>
		<clipPath id="clip494_454">
			<rect id="interface-arrows-curvy-both-direction-2--both-direction-arrow-curvy-diagram-zigzag-horizontal--Streamline-Core" rx="0.000000" width="19.333303" height="19.333303" transform="translate(0.333334 0.333334)" fill="white" fill-opacity="0"/>
		</clipPath>
	</defs>
	<rect id="interface-arrows-curvy-both-direction-2--both-direction-arrow-curvy-diagram-zigzag-horizontal--Streamline-Core" rx="0.000000" width="19.333303" height="19.333303" transform="translate(0.333334 0.333334)" fill="#FFFFFF" fill-opacity="0"/>
	<g clip-path="url(#clip494_454)">
		<path id="Vector" d="M4.17 0.71L0.71 4.17L17.32 4.17C17.69 4.17 18.04 4.32 18.3 4.58C18.56 4.84 18.71 5.19 18.71 5.56L18.71 8.33C18.71 8.69 18.56 9.04 18.3 9.3C18.04 9.56 17.69 9.71 17.32 9.71L2.09 9.71C1.73 9.71 1.37 9.86 1.11 10.12C0.85 10.37 0.71 10.73 0.71 11.09L0.71 13.86C0.71 14.23 0.85 14.58 1.11 14.84C1.37 15.1 1.73 15.25 2.09 15.25L18.71 15.25L15.25 18.71" stroke="#0000AC" stroke-opacity="1.000000" stroke-width="1.333334" stroke-linejoin="round" stroke-linecap="round"/>
	</g>
</svg>
